<svg xmlns="http://www.w3.org/2000/svg" xmlns:xlink="http://www.w3.org/1999/xlink" width="500" zoomAndPan="magnify" viewBox="0 0 375 374.999991" height="500" preserveAspectRatio="xMidYMid meet" version="1.0"><defs><g/><clipPath id="f4b74808bd"><path d="M 20.960938 77 L 88 77 L 88 112 L 20.960938 112 Z M 20.960938 77 " clip-rule="nonzero"/></clipPath><clipPath id="1f8596ecc0"><path d="M 88 10.5 L 102 10.5 L 102 72 L 88 72 Z M 88 10.5 " clip-rule="nonzero"/></clipPath><clipPath id="8c3a318910"><path d="M 265 135 L 301.460938 135 L 301.460938 192 L 265 192 Z M 265 135 " clip-rule="nonzero"/></clipPath><clipPath id="f058d58487"><path d="M 175 249 L 205 249 L 205 274.472656 L 175 274.472656 Z M 175 249 " clip-rule="nonzero"/></clipPath></defs><path fill="#203d4a" d="M 134.0625 244.316406 C 124.082031 242.074219 114.621094 239.242188 105.808594 235.90625 C 107.578125 237.949219 109.421875 239.929688 111.332031 241.839844 C 124.171875 254.671875 140.136719 264.378906 157.984375 269.742188 C 149.257812 263.796875 141.394531 255.503906 134.757812 245.386719 C 134.523438 245.035156 134.292969 244.679688 134.0625 244.316406 " fill-opacity="1" fill-rule="evenodd"/><path fill="#203d4a" d="M 92.980469 223.996094 C 103.011719 226.835938 113.894531 228.902344 125.40625 230.105469 C 117.332031 219.308594 110.472656 206.34375 105.371094 191.832031 C 93.527344 191.90625 82.605469 191.484375 72.882812 190.585938 C 72.371094 190.535156 71.867188 190.488281 71.363281 190.4375 C 76.546875 203.019531 83.933594 214.339844 92.980469 223.996094 " fill-opacity="1" fill-rule="evenodd"/><path fill="#4daacf" d="M 50.183594 169.980469 C 59.023438 172.078125 68.972656 173.914062 79.808594 175.433594 C 78.363281 166.511719 77.597656 157.183594 77.597656 147.589844 C 77.597656 137.992188 78.363281 128.664062 79.808594 119.742188 C 68.972656 121.261719 59.023438 123.097656 50.183594 125.199219 C 48.761719 125.535156 47.367188 125.878906 46.003906 126.226562 C 44.660156 133.140625 43.953125 140.28125 43.953125 147.585938 C 43.953125 154.894531 44.660156 162.03125 46.003906 168.945312 C 47.367188 169.296875 48.761719 169.640625 50.183594 169.980469 " fill-opacity="1" fill-rule="evenodd"/><g clip-path="url(#f4b74808bd)"><path fill="#ffcc00" d="M 22.324219 94.808594 C 30.988281 99.296875 40.410156 104.832031 50.339844 111.285156 C 62.472656 101.824219 75.257812 94.613281 87.894531 89.882812 C 77.550781 84.6875 67.273438 80.554688 57.292969 77.535156 C 44.460938 80.777344 32.128906 86.316406 20.960938 94.109375 C 21.414062 94.339844 21.867188 94.570312 22.324219 94.808594 " fill-opacity="1" fill-rule="evenodd"/></g><g clip-path="url(#1f8596ecc0)"><path fill="#b565cf" d="M 89.085938 71.847656 C 92.554688 63.09375 96.839844 54.199219 101.902344 45.320312 C 101.792969 44.90625 101.683594 44.496094 101.578125 44.085938 C 98.570312 32.371094 97.734375 20.976562 99.222656 10.53125 C 91.160156 27.320312 87.582031 45.644531 88.417969 63.769531 C 88.542969 66.472656 88.765625 69.164062 89.085938 71.847656 " fill-opacity="1" fill-rule="evenodd"/></g><path fill="#cc3f3f" d="M 110.175781 66.929688 C 108.171875 80.414062 108.589844 95.433594 111.609375 110.996094 C 122.359375 104.832031 134.179688 98.644531 146.816406 92.617188 C 141.789062 77.332031 138.164062 63.21875 136.089844 51.203125 C 126.851562 56.054688 118.179688 61.332031 110.175781 66.929688 " fill-opacity="1" fill-rule="evenodd"/><path fill="#203d4a" d="M 150 58.070312 C 155.96875 51.375 162.496094 44.8125 169.539062 38.476562 C 165.476562 28.621094 163.222656 20.136719 163.054688 13.628906 C 153.746094 24.910156 149.453125 40.527344 150 58.070312 " fill-opacity="1" fill-rule="evenodd"/><path fill="#e0a526" d="M 164.613281 81.902344 C 163.40625 93.90625 163.144531 108.390625 163.925781 124.417969 C 171.234375 123.175781 178.734375 122.035156 186.382812 121.015625 C 194.035156 119.996094 201.570312 119.128906 208.949219 118.414062 C 205.496094 102.742188 201.441406 88.832031 197.125 77.566406 L 196.746094 76.582031 C 191.445312 76.960938 186.082031 77.503906 180.667969 78.226562 C 175.253906 78.949219 169.933594 79.828125 164.722656 80.851562 Z M 164.613281 81.902344 " fill-opacity="1" fill-rule="evenodd"/><path fill="#b565cf" d="M 167.65625 65.878906 C 172.449219 66.46875 177.285156 67.195312 182.152344 68.0625 C 187.019531 68.929688 191.804688 69.921875 196.507812 71.027344 C 194.992188 55.238281 191.554688 45.300781 186.386719 44.375 C 181.21875 43.453125 174.550781 51.589844 167.65625 65.878906 " fill-opacity="1" fill-rule="evenodd"/><path fill="#203d4a" d="M 200.675781 53.078125 C 204.511719 58.339844 207.90625 66.4375 210.707031 76.722656 C 220.15625 77.453125 229.335938 78.675781 238.15625 80.34375 C 227.871094 66.105469 214.9375 56.34375 200.675781 53.078125 " fill-opacity="1" fill-rule="evenodd"/><path fill="#203d4a" d="M 242.5625 86.988281 C 232.878906 84.917969 222.703125 83.40625 212.164062 82.519531 C 214.972656 94.550781 217.160156 109.152344 218.503906 125.402344 C 232.675781 126.046875 246.148438 127.164062 258.617188 128.683594 C 255.292969 112.964844 249.753906 98.78125 242.5625 86.988281 " fill-opacity="1" fill-rule="evenodd"/><path fill="#203d4a" d="M 250.105469 88.738281 C 256.582031 100.566406 261.546875 114.367188 264.554688 129.449219 C 276.289062 131.042969 287.042969 133 296.539062 135.253906 C 297.039062 135.375 297.53125 135.496094 298.023438 135.613281 C 294.664062 122.429688 288.949219 110.183594 281.351562 99.351562 C 271.820312 95.128906 261.335938 91.550781 250.105469 88.738281 " fill-opacity="1" fill-rule="evenodd"/><path fill="#203d4a" d="M 246.109375 81.988281 C 256.089844 84.234375 265.550781 87.066406 274.367188 90.402344 C 272.597656 88.355469 270.753906 86.378906 268.84375 84.46875 C 256 71.636719 240.039062 61.925781 222.191406 56.570312 C 230.917969 62.507812 238.777344 70.804688 245.414062 80.917969 C 245.648438 81.273438 245.882812 81.628906 246.109375 81.988281 " fill-opacity="1" fill-rule="evenodd"/><path fill="#2c90b6" d="M 215.417969 133.285156 C 207.941406 132.265625 200.261719 131.359375 192.421875 130.582031 C 184.582031 129.808594 176.875 129.195312 169.339844 128.730469 C 167.613281 138.839844 166.160156 149.59375 165.054688 160.765625 C 163.949219 171.941406 163.265625 182.769531 162.972656 193.023438 C 170.453125 194.042969 178.128906 194.949219 185.96875 195.722656 C 193.808594 196.5 201.515625 197.113281 209.050781 197.578125 C 210.773438 187.464844 212.230469 176.714844 213.335938 165.539062 C 214.445312 154.367188 215.125 143.539062 215.417969 133.285156 " fill-opacity="1" fill-rule="evenodd"/><path fill="#a3cf6e" d="M 144.585938 155.765625 C 148.277344 145.265625 152.203125 135.242188 156.242188 125.871094 C 142.367188 121.714844 129.046875 118.277344 116.601562 115.597656 C 112.089844 123.691406 108.109375 132.464844 104.824219 141.804688 C 101.539062 151.144531 99.148438 160.476562 97.605469 169.613281 C 108.992188 175.296875 121.535156 180.945312 134.960938 186.375 C 137.679688 176.535156 140.894531 166.257812 144.585938 155.765625 " fill-opacity="1" fill-rule="evenodd"/><path fill="#203d4a" d="M 218.933594 131.089844 C 219.636719 141.269531 220.011719 152.027344 220.011719 163.152344 C 220.011719 174.277344 219.636719 185.039062 218.933594 195.21875 C 233.402344 194.546875 247.109375 193.375 259.738281 191.78125 C 261.3125 182.648438 262.15625 173.054688 262.15625 163.152344 C 262.15625 153.253906 261.3125 143.660156 259.738281 134.527344 C 247.109375 132.933594 233.402344 131.765625 218.933594 131.089844 " fill-opacity="1" fill-rule="evenodd"/><g clip-path="url(#8c3a318910)"><path fill="#203d4a" d="M 265.609375 135.304688 C 267.054688 144.230469 267.820312 153.558594 267.820312 163.15625 C 267.820312 172.75 267.054688 182.078125 265.609375 191.003906 C 276.445312 189.484375 286.398438 187.644531 295.234375 185.546875 C 296.660156 185.207031 298.050781 184.863281 299.410156 184.511719 C 300.757812 177.601562 301.460938 170.460938 301.460938 163.15625 C 301.460938 155.851562 300.757812 148.707031 299.410156 141.796875 C 298.050781 141.445312 296.660156 141.101562 295.234375 140.765625 C 286.398438 138.664062 276.445312 136.824219 265.609375 135.304688 " fill-opacity="1" fill-rule="evenodd"/></g><path fill="#203d4a" d="M 296.539062 191.050781 C 287.042969 193.308594 276.289062 195.265625 264.554688 196.859375 C 261.546875 211.941406 256.582031 225.742188 250.105469 237.570312 C 261.335938 234.757812 271.820312 231.179688 281.351562 226.953125 C 288.949219 216.125 294.664062 203.878906 298.023438 190.695312 C 297.53125 190.8125 297.039062 190.933594 296.539062 191.050781 " fill-opacity="1" fill-rule="evenodd"/><path fill="#203d4a" d="M 274.367188 235.90625 C 265.550781 239.242188 256.089844 242.074219 246.109375 244.316406 C 245.882812 244.679688 245.648438 245.035156 245.417969 245.386719 C 238.777344 255.507812 230.917969 263.800781 222.191406 269.742188 C 240.039062 264.378906 256.003906 254.671875 268.84375 241.839844 C 270.753906 239.929688 272.597656 237.953125 274.367188 235.90625 " fill-opacity="1" fill-rule="evenodd"/><path fill="#203d4a" d="M 200.675781 273.226562 C 214.9375 269.960938 227.871094 260.203125 238.15625 245.964844 C 229.335938 247.632812 220.15625 248.855469 210.707031 249.585938 C 207.90625 259.871094 204.511719 267.96875 200.675781 273.226562 " fill-opacity="1" fill-rule="evenodd"/><path fill="#203d4a" d="M 212.164062 243.789062 C 222.703125 242.902344 232.878906 241.390625 242.5625 239.320312 C 249.753906 227.523438 255.292969 213.339844 258.617188 197.621094 C 246.148438 199.140625 232.675781 200.257812 218.503906 200.902344 C 217.160156 217.15625 214.972656 231.757812 212.164062 243.789062 " fill-opacity="1" fill-rule="evenodd"/><path fill="#203d4a" d="M 206.488281 243.191406 C 209.273438 231.453125 211.453125 217.128906 212.800781 201.136719 C 205.390625 201.40625 197.808594 201.546875 190.085938 201.546875 C 182.367188 201.546875 174.785156 201.40625 167.375 201.136719 C 168.722656 217.128906 170.902344 231.453125 173.683594 243.191406 L 173.933594 244.21875 C 179.238281 244.542969 184.628906 244.710938 190.085938 244.710938 C 195.546875 244.710938 200.9375 244.542969 206.238281 244.21875 Z M 206.488281 243.191406 " fill-opacity="1" fill-rule="evenodd"/><g clip-path="url(#f058d58487)"><path fill="#203d4a" d="M 190.085938 250.375 C 185.144531 250.375 180.257812 250.238281 175.433594 249.972656 C 179.707031 265.253906 184.835938 274.433594 190.085938 274.433594 C 195.339844 274.433594 200.464844 265.253906 204.742188 249.972656 C 199.917969 250.238281 195.03125 250.375 190.085938 250.375 " fill-opacity="1" fill-rule="evenodd"/></g><path fill="#203d4a" d="M 179.5 273.226562 C 175.660156 267.96875 172.265625 259.871094 169.46875 249.585938 C 160.019531 248.855469 150.839844 247.632812 142.019531 245.964844 C 152.300781 260.203125 165.234375 269.960938 179.5 273.226562 " fill-opacity="1" fill-rule="evenodd"/><path fill="#203d4a" d="M 137.613281 239.320312 C 147.292969 241.390625 157.46875 242.902344 168.011719 243.789062 C 165.203125 231.757812 163.015625 217.15625 161.671875 200.902344 C 147.496094 200.261719 134.027344 199.140625 121.554688 197.621094 C 124.878906 213.339844 130.417969 227.523438 137.613281 239.320312 " fill-opacity="1" fill-rule="evenodd"/><g fill="#203d4a" fill-opacity="1"><g transform="translate(41.892064, 332.056081)"><g><path d="M 24.300781 1.003906 C 28.429688 1.003906 33.148438 0.117188 36.273438 -4.1875 L 36.273438 0 L 45.886719 0 L 45.886719 -25.125 L 25.953125 -25.125 L 25.953125 -16.632812 L 35.328125 -16.632812 C 35.035156 -10.851562 31.4375 -8.433594 25.480469 -8.433594 C 17.222656 -8.433594 12.976562 -13.980469 12.976562 -22.53125 C 12.976562 -31.023438 17.222656 -36.507812 24.300781 -36.507812 C 29.84375 -36.507812 33.089844 -34.269531 34.148438 -29.785156 L 45.710938 -29.785156 C 44.234375 -39.515625 37.039062 -45.945312 24.300781 -45.945312 C 8.90625 -45.945312 1.828125 -35.09375 1.828125 -22.53125 C 1.828125 -9.96875 8.90625 1.003906 24.300781 1.003906 Z M 24.300781 1.003906 "/></g></g></g><g fill="#203d4a" fill-opacity="1"><g transform="translate(93.599505, 332.056081)"><g><path d="M 34.269531 0 L 34.269531 -9.4375 L 14.097656 -9.4375 L 14.097656 -17.8125 L 32.320312 -17.8125 L 32.320312 -27.191406 L 14.097656 -27.191406 L 14.097656 -35.566406 L 34.269531 -35.566406 L 34.269531 -45.003906 L 3.539062 -45.003906 L 3.539062 0 Z M 34.269531 0 "/></g></g></g><g fill="#203d4a" fill-opacity="1"><g transform="translate(133.338489, 332.056081)"><g><path d="M 24.359375 1.003906 C 39.636719 1.003906 46.773438 -9.96875 46.773438 -22.53125 C 46.773438 -35.09375 39.636719 -45.945312 24.359375 -45.945312 C 8.964844 -45.945312 1.886719 -35.09375 1.886719 -22.53125 C 1.886719 -9.96875 8.964844 1.003906 24.359375 1.003906 Z M 24.359375 -8.433594 C 17.28125 -8.433594 13.035156 -13.980469 13.035156 -22.53125 C 13.035156 -31.023438 17.28125 -36.507812 24.359375 -36.507812 C 31.4375 -36.507812 35.625 -31.023438 35.625 -22.53125 C 35.625 -13.980469 31.4375 -8.433594 24.359375 -8.433594 Z M 24.359375 -8.433594 "/></g></g></g><g fill="#203d4a" fill-opacity="1"><g transform="translate(186.717326, 332.056081)"><g><path d="M 6.605469 0 C 15.15625 0 17.398438 -3.953125 17.398438 -10.320312 L 17.398438 -45.003906 L 13.328125 -45.003906 L 13.328125 -10.378906 C 13.328125 -5.898438 11.324219 -3.65625 6.605469 -3.65625 L 0.945312 -3.65625 L 0.945312 0 Z M 6.605469 0 "/></g></g></g><g fill="#203d4a" fill-opacity="1"><g transform="translate(212.719693, 332.056081)"><g><path d="M 19.996094 0.589844 C 30.199219 0.589844 35.625 -4.71875 35.625 -12.5625 C 35.625 -22.117188 27.664062 -23.886719 20.347656 -25.480469 C 14.15625 -26.835938 8.375 -28.132812 8.375 -34.03125 C 8.375 -38.925781 12.738281 -41.9375 18.875 -41.9375 C 24.652344 -41.9375 29.019531 -39.578125 30.257812 -33.148438 L 34.148438 -33.148438 C 32.734375 -41.9375 26.777344 -45.59375 18.933594 -45.59375 C 10.558594 -45.59375 4.304688 -40.992188 4.304688 -33.738281 C 4.304688 -25.066406 11.679688 -23.472656 18.757812 -21.941406 C 25.304688 -20.527344 31.554688 -19.167969 31.554688 -12.386719 C 31.554688 -6.546875 27.425781 -3.066406 20.289062 -3.066406 C 14.273438 -3.066406 7.960938 -5.367188 6.664062 -12.738281 L 2.535156 -12.738281 C 4.011719 -3.242188 11.5 0.589844 19.996094 0.589844 Z M 19.996094 0.589844 "/></g></g></g><g fill="#203d4a" fill-opacity="1"><g transform="translate(255.348166, 332.056081)"><g><path d="M 23.414062 0.589844 C 37.277344 0.589844 43.882812 -10.261719 43.882812 -22.53125 C 43.882812 -34.800781 37.277344 -45.59375 23.414062 -45.59375 C 9.554688 -45.59375 2.949219 -34.800781 2.949219 -22.53125 C 2.949219 -10.261719 9.554688 0.589844 23.414062 0.589844 Z M 23.414062 -3.066406 C 12.621094 -3.066406 7.019531 -11.5 7.019531 -22.53125 C 7.019531 -33.5 12.621094 -41.9375 23.414062 -41.9375 C 34.210938 -41.9375 39.8125 -33.5 39.8125 -22.53125 C 39.8125 -11.5 34.210938 -3.066406 23.414062 -3.066406 Z M 23.414062 -3.066406 "/></g></g></g><g fill="#203d4a" fill-opacity="1"><g transform="translate(306.289718, 332.056081)"><g><path d="M 8.730469 0 L 8.730469 -41.109375 L 30.550781 0 L 36.804688 0 L 36.804688 -45.003906 L 32.792969 -45.003906 L 32.792969 -3.714844 L 10.910156 -45.003906 L 4.660156 -45.003906 L 4.660156 0 Z M 8.730469 0 "/></g></g></g><g fill="#203d4a" fill-opacity="1"><g transform="translate(89.843487, 370.542749)"><g><path d="M 9.9375 -2.46875 C 10.03125 -2.46875 10.109375 -2.429688 10.171875 -2.359375 L 10.8125 -1.671875 C 10.320312 -1.097656 9.726562 -0.648438 9.03125 -0.328125 C 8.332031 -0.015625 7.488281 0.140625 6.5 0.140625 C 5.632812 0.140625 4.847656 -0.0078125 4.140625 -0.3125 C 3.441406 -0.613281 2.84375 -1.03125 2.34375 -1.5625 C 1.851562 -2.101562 1.472656 -2.75 1.203125 -3.5 C 0.929688 -4.25 0.796875 -5.078125 0.796875 -5.984375 C 0.796875 -6.890625 0.9375 -7.71875 1.21875 -8.46875 C 1.5 -9.21875 1.894531 -9.863281 2.40625 -10.40625 C 2.925781 -10.945312 3.546875 -11.363281 4.265625 -11.65625 C 4.984375 -11.957031 5.78125 -12.109375 6.65625 -12.109375 C 7.507812 -12.109375 8.257812 -11.972656 8.90625 -11.703125 C 9.5625 -11.429688 10.140625 -11.0625 10.640625 -10.59375 L 10.09375 -9.84375 C 10.0625 -9.789062 10.019531 -9.742188 9.96875 -9.703125 C 9.914062 -9.671875 9.84375 -9.65625 9.75 -9.65625 C 9.65625 -9.65625 9.535156 -9.707031 9.390625 -9.8125 C 9.242188 -9.925781 9.050781 -10.046875 8.8125 -10.171875 C 8.582031 -10.304688 8.289062 -10.425781 7.9375 -10.53125 C 7.59375 -10.644531 7.160156 -10.703125 6.640625 -10.703125 C 6.023438 -10.703125 5.460938 -10.59375 4.953125 -10.375 C 4.441406 -10.164062 4 -9.859375 3.625 -9.453125 C 3.25 -9.046875 2.957031 -8.550781 2.75 -7.96875 C 2.550781 -7.382812 2.453125 -6.722656 2.453125 -5.984375 C 2.453125 -5.234375 2.554688 -4.566406 2.765625 -3.984375 C 2.984375 -3.398438 3.273438 -2.90625 3.640625 -2.5 C 4.015625 -2.09375 4.453125 -1.785156 4.953125 -1.578125 C 5.460938 -1.367188 6.007812 -1.265625 6.59375 -1.265625 C 6.945312 -1.265625 7.265625 -1.285156 7.546875 -1.328125 C 7.835938 -1.367188 8.101562 -1.429688 8.34375 -1.515625 C 8.59375 -1.609375 8.820312 -1.722656 9.03125 -1.859375 C 9.238281 -1.992188 9.445312 -2.15625 9.65625 -2.34375 C 9.75 -2.425781 9.84375 -2.46875 9.9375 -2.46875 Z M 9.9375 -2.46875 "/></g></g></g><g fill="#203d4a" fill-opacity="1"><g transform="translate(114.380515, 370.542749)"><g><path d="M 12.59375 -5.984375 C 12.59375 -5.085938 12.453125 -4.265625 12.171875 -3.515625 C 11.890625 -2.765625 11.488281 -2.117188 10.96875 -1.578125 C 10.445312 -1.035156 9.820312 -0.613281 9.09375 -0.3125 C 8.375 -0.0195312 7.570312 0.125 6.6875 0.125 C 5.800781 0.125 4.992188 -0.0195312 4.265625 -0.3125 C 3.546875 -0.613281 2.925781 -1.035156 2.40625 -1.578125 C 1.894531 -2.117188 1.492188 -2.765625 1.203125 -3.515625 C 0.921875 -4.265625 0.78125 -5.085938 0.78125 -5.984375 C 0.78125 -6.878906 0.921875 -7.703125 1.203125 -8.453125 C 1.492188 -9.203125 1.894531 -9.847656 2.40625 -10.390625 C 2.925781 -10.929688 3.546875 -11.351562 4.265625 -11.65625 C 4.992188 -11.957031 5.800781 -12.109375 6.6875 -12.109375 C 7.570312 -12.109375 8.375 -11.957031 9.09375 -11.65625 C 9.820312 -11.351562 10.445312 -10.929688 10.96875 -10.390625 C 11.488281 -9.847656 11.890625 -9.203125 12.171875 -8.453125 C 12.453125 -7.703125 12.59375 -6.878906 12.59375 -5.984375 Z M 10.9375 -5.984375 C 10.9375 -6.722656 10.832031 -7.382812 10.625 -7.96875 C 10.425781 -8.550781 10.144531 -9.046875 9.78125 -9.453125 C 9.414062 -9.859375 8.96875 -10.164062 8.4375 -10.375 C 7.914062 -10.59375 7.332031 -10.703125 6.6875 -10.703125 C 6.039062 -10.703125 5.457031 -10.59375 4.9375 -10.375 C 4.414062 -10.164062 3.96875 -9.859375 3.59375 -9.453125 C 3.226562 -9.046875 2.941406 -8.550781 2.734375 -7.96875 C 2.535156 -7.382812 2.4375 -6.722656 2.4375 -5.984375 C 2.4375 -5.242188 2.535156 -4.582031 2.734375 -4 C 2.941406 -3.425781 3.226562 -2.9375 3.59375 -2.53125 C 3.96875 -2.125 4.414062 -1.8125 4.9375 -1.59375 C 5.457031 -1.382812 6.039062 -1.28125 6.6875 -1.28125 C 7.332031 -1.28125 7.914062 -1.382812 8.4375 -1.59375 C 8.96875 -1.8125 9.414062 -2.125 9.78125 -2.53125 C 10.144531 -2.9375 10.425781 -3.425781 10.625 -4 C 10.832031 -4.582031 10.9375 -5.242188 10.9375 -5.984375 Z M 10.9375 -5.984375 "/></g></g></g><g fill="#203d4a" fill-opacity="1"><g transform="translate(141.132236, 370.542749)"><g><path d="M 11.234375 -11.984375 L 11.234375 0 L 10.421875 0 C 10.296875 0 10.1875 -0.0195312 10.09375 -0.0625 C 10.007812 -0.113281 9.925781 -0.191406 9.84375 -0.296875 L 2.921875 -9.328125 C 2.929688 -9.179688 2.9375 -9.039062 2.9375 -8.90625 C 2.945312 -8.769531 2.953125 -8.644531 2.953125 -8.53125 L 2.953125 0 L 1.53125 0 L 1.53125 -11.984375 L 2.359375 -11.984375 C 2.429688 -11.984375 2.492188 -11.976562 2.546875 -11.96875 C 2.597656 -11.957031 2.640625 -11.941406 2.671875 -11.921875 C 2.710938 -11.898438 2.753906 -11.867188 2.796875 -11.828125 C 2.835938 -11.796875 2.878906 -11.753906 2.921875 -11.703125 L 9.859375 -2.6875 C 9.847656 -2.832031 9.835938 -2.972656 9.828125 -3.109375 C 9.816406 -3.242188 9.8125 -3.375 9.8125 -3.5 L 9.8125 -11.984375 Z M 11.234375 -11.984375 "/></g></g></g><g fill="#203d4a" fill-opacity="1"><g transform="translate(167.265521, 370.542749)"><g><path d="M 11.265625 -11.984375 L 6.390625 0 L 4.9375 0 L 0.046875 -11.984375 L 1.34375 -11.984375 C 1.488281 -11.984375 1.601562 -11.945312 1.6875 -11.875 C 1.78125 -11.800781 1.847656 -11.707031 1.890625 -11.59375 L 5.28125 -3.140625 C 5.351562 -2.953125 5.421875 -2.742188 5.484375 -2.515625 C 5.554688 -2.296875 5.617188 -2.066406 5.671875 -1.828125 C 5.734375 -2.066406 5.789062 -2.296875 5.84375 -2.515625 C 5.90625 -2.742188 5.972656 -2.953125 6.046875 -3.140625 L 9.421875 -11.59375 C 9.453125 -11.6875 9.515625 -11.773438 9.609375 -11.859375 C 9.710938 -11.941406 9.832031 -11.984375 9.96875 -11.984375 Z M 11.265625 -11.984375 "/></g></g></g><g fill="#203d4a" fill-opacity="1"><g transform="translate(191.952978, 370.542749)"><g><path d="M 8.921875 -1.328125 L 8.90625 0 L 1.53125 0 L 1.53125 -11.984375 L 8.90625 -11.984375 L 8.90625 -10.65625 L 3.15625 -10.65625 L 3.15625 -6.671875 L 7.8125 -6.671875 L 7.8125 -5.40625 L 3.15625 -5.40625 L 3.15625 -1.328125 Z M 8.921875 -1.328125 "/></g></g></g><g fill="#203d4a" fill-opacity="1"><g transform="translate(214.977339, 370.542749)"><g><path d="M 4.84375 -6.171875 C 5.3125 -6.171875 5.722656 -6.226562 6.078125 -6.34375 C 6.441406 -6.457031 6.742188 -6.617188 6.984375 -6.828125 C 7.234375 -7.035156 7.414062 -7.285156 7.53125 -7.578125 C 7.65625 -7.867188 7.71875 -8.191406 7.71875 -8.546875 C 7.71875 -9.253906 7.484375 -9.789062 7.015625 -10.15625 C 6.546875 -10.519531 5.847656 -10.703125 4.921875 -10.703125 L 3.140625 -10.703125 L 3.140625 -6.171875 Z M 10.375 0 L 8.9375 0 C 8.644531 0 8.429688 -0.113281 8.296875 -0.34375 L 5.1875 -4.625 C 5.09375 -4.757812 4.988281 -4.851562 4.875 -4.90625 C 4.769531 -4.96875 4.601562 -5 4.375 -5 L 3.140625 -5 L 3.140625 0 L 1.53125 0 L 1.53125 -11.984375 L 4.921875 -11.984375 C 5.671875 -11.984375 6.320312 -11.90625 6.875 -11.75 C 7.425781 -11.59375 7.878906 -11.367188 8.234375 -11.078125 C 8.597656 -10.796875 8.863281 -10.445312 9.03125 -10.03125 C 9.207031 -9.625 9.296875 -9.164062 9.296875 -8.65625 C 9.296875 -8.238281 9.226562 -7.84375 9.09375 -7.46875 C 8.96875 -7.101562 8.773438 -6.773438 8.515625 -6.484375 C 8.265625 -6.191406 7.957031 -5.941406 7.59375 -5.734375 C 7.226562 -5.523438 6.816406 -5.367188 6.359375 -5.265625 C 6.554688 -5.148438 6.734375 -4.976562 6.890625 -4.75 Z M 10.375 0 "/></g></g></g><g fill="#203d4a" fill-opacity="1"><g transform="translate(238.820709, 370.542749)"><g><path d="M 9.625 -10.609375 L 5.75 -10.609375 L 5.75 0 L 4.140625 0 L 4.140625 -10.609375 L 0.25 -10.609375 L 0.25 -11.984375 L 9.625 -11.984375 Z M 9.625 -10.609375 "/></g></g></g><g fill="#203d4a" fill-opacity="1"><g transform="translate(262.062345, 370.542749)"><g><path d="M 8.921875 -1.328125 L 8.90625 0 L 1.53125 0 L 1.53125 -11.984375 L 8.90625 -11.984375 L 8.90625 -10.65625 L 3.15625 -10.65625 L 3.15625 -6.671875 L 7.8125 -6.671875 L 7.8125 -5.40625 L 3.15625 -5.40625 L 3.15625 -1.328125 Z M 8.921875 -1.328125 "/></g></g></g><g fill="#203d4a" fill-opacity="1"><g transform="translate(285.086716, 370.542749)"><g><path d="M 4.84375 -6.171875 C 5.3125 -6.171875 5.722656 -6.226562 6.078125 -6.34375 C 6.441406 -6.457031 6.742188 -6.617188 6.984375 -6.828125 C 7.234375 -7.035156 7.414062 -7.285156 7.53125 -7.578125 C 7.65625 -7.867188 7.71875 -8.191406 7.71875 -8.546875 C 7.71875 -9.253906 7.484375 -9.789062 7.015625 -10.15625 C 6.546875 -10.519531 5.847656 -10.703125 4.921875 -10.703125 L 3.140625 -10.703125 L 3.140625 -6.171875 Z M 10.375 0 L 8.9375 0 C 8.644531 0 8.429688 -0.113281 8.296875 -0.34375 L 5.1875 -4.625 C 5.09375 -4.757812 4.988281 -4.851562 4.875 -4.90625 C 4.769531 -4.96875 4.601562 -5 4.375 -5 L 3.140625 -5 L 3.140625 0 L 1.53125 0 L 1.53125 -11.984375 L 4.921875 -11.984375 C 5.671875 -11.984375 6.320312 -11.90625 6.875 -11.75 C 7.425781 -11.59375 7.878906 -11.367188 8.234375 -11.078125 C 8.597656 -10.796875 8.863281 -10.445312 9.03125 -10.03125 C 9.207031 -9.625 9.296875 -9.164062 9.296875 -8.65625 C 9.296875 -8.238281 9.226562 -7.84375 9.09375 -7.46875 C 8.96875 -7.101562 8.773438 -6.773438 8.515625 -6.484375 C 8.265625 -6.191406 7.957031 -5.941406 7.59375 -5.734375 C 7.226562 -5.523438 6.816406 -5.367188 6.359375 -5.265625 C 6.554688 -5.148438 6.734375 -4.976562 6.890625 -4.75 Z M 10.375 0 "/></g></g></g></svg>